<svg width="3" height="4" viewBox="0 0 3 4" fill="none" xmlns="http://www.w3.org/2000/svg">
<path d="M1.21067 0.84711C1.52536 0.707622 1.91516 0.683527 2.22019 0.781602C2.29701 0.803079 2.36366 0.849531 2.40874 0.913015C2.45352 0.976103 2.47419 1.05213 2.46729 1.12813C2.46684 1.17747 2.45422 1.22601 2.43048 1.2698C2.40632 1.31438 2.37132 1.35272 2.32846 1.38159C2.2856 1.41043 2.23613 1.42898 2.18423 1.43561C2.13231 1.44225 2.07952 1.4368 2.03027 1.4197L2.02653 1.4184L2.02301 1.41662C1.99781 1.40396 1.97105 1.39444 1.94336 1.38823L1.94162 1.38786C1.72704 1.33315 1.52464 1.42379 1.45071 1.53516C1.41545 1.58826 1.41108 1.64186 1.44044 1.69062C1.4719 1.74284 1.54903 1.80144 1.70512 1.8432C1.74805 1.85451 1.79205 1.86543 1.83668 1.87652C1.96011 1.90719 2.08838 1.93906 2.21241 1.98322L2.21288 1.9834C2.78509 2.19235 2.99816 2.62512 2.92522 3.03217C2.85306 3.4347 2.5028 3.80104 1.97607 3.88745C1.78441 3.92823 1.58494 3.92028 1.39743 3.86441C1.20944 3.80837 1.03999 3.70611 0.905917 3.56774L0.90242 3.56414C0.860097 3.51201 0.831628 3.45077 0.819007 3.38579C0.807395 3.32714 0.813515 3.26654 0.836604 3.21111C0.859559 3.15601 0.898385 3.10833 0.948486 3.07358C1.00141 3.03419 1.06521 3.01056 1.13199 3.00563C1.19855 3.00072 1.26515 3.01461 1.32359 3.04555C1.38196 3.07261 1.43625 3.10714 1.48499 3.1482L1.48591 3.14895C1.57212 3.22462 1.67643 3.24434 1.77645 3.22608C1.87793 3.20755 1.97336 3.14992 2.03474 3.07345C2.09571 2.99747 2.12019 2.9072 2.09114 2.81958C2.0619 2.73132 1.97401 2.63243 1.78089 2.54976C1.73041 2.52918 1.67806 2.51259 1.62361 2.49644C1.60893 2.49208 1.594 2.48775 1.57889 2.48335C1.53863 2.47162 1.4972 2.45954 1.45658 2.44622C1.42861 2.43707 1.40086 2.4284 1.37337 2.4198C1.29825 2.39632 1.22502 2.37343 1.15454 2.34274C1.00114 2.29261 0.868615 2.19636 0.776684 2.06823C0.684372 1.93958 0.637925 1.78575 0.644246 1.62969C0.644739 1.24938 0.894305 0.987369 1.21067 0.84711Z" fill="#3A3B7B"/>
</svg>
