<svg width="4" height="4" viewBox="0 0 4 4" fill="none" xmlns="http://www.w3.org/2000/svg">
<path fill-rule="evenodd" clip-rule="evenodd" d="M2.4489 0.408483C2.18465 0.342799 1.90868 0.333227 1.64022 0.380449C1.43228 0.400099 1.22777 0.446134 1.08576 0.537322C1.01353 0.58373 0.955138 0.643319 0.922656 0.719059C0.889995 0.795218 0.885826 0.882314 0.912591 0.979355C0.96146 1.15711 1.02492 1.32994 1.08816 1.50221L1.0984 1.53011L1.09865 1.53073C1.28906 2.03121 1.48128 2.52999 1.67525 3.02706C1.69787 3.1054 1.72986 3.18096 1.77057 3.25223L1.77133 3.25356C1.82511 3.3421 1.89409 3.4213 1.97535 3.48782C2.01599 3.52439 2.06625 3.5497 2.12074 3.56101C2.17578 3.57241 2.23301 3.5691 2.2862 3.55141C2.33942 3.53374 2.38654 3.50239 2.42245 3.46075C2.45778 3.4198 2.48091 3.37047 2.48941 3.31796C2.52447 3.17533 2.51324 3.0258 2.4572 2.88946C2.43971 2.84358 2.42599 2.79669 2.41153 2.74733C2.40671 2.73087 2.40183 2.71413 2.39667 2.69707C2.84068 2.5305 3.31311 2.30651 3.47924 1.78544C3.5443 1.60537 3.54972 1.41039 3.49475 1.22722C3.43974 1.04385 3.32688 0.881323 3.17171 0.762013C2.96052 0.594996 2.71382 0.474322 2.4489 0.408483ZM1.71643 1.04761C1.72518 1.04519 1.73399 1.04295 1.74282 1.04086C2.03188 0.997245 2.32763 1.05536 2.5756 1.20446C2.68488 1.27741 2.72965 1.35845 2.73734 1.43644C2.74527 1.51674 2.71485 1.60374 2.65375 1.68738C2.53828 1.84538 2.32756 1.97184 2.13722 1.99541C1.99846 1.6887 1.85755 1.36959 1.71643 1.04761Z" fill="#3A3B7B"/>
</svg>
