<svg width="2" height="5" viewBox="0 0 2 5" fill="none" xmlns="http://www.w3.org/2000/svg">
<path d="M1.09809 4.19412C1.08498 4.28802 1.03355 4.37307 0.955096 4.43057C0.876637 4.48804 0.7776 4.51328 0.679774 4.50069C0.581947 4.48811 0.493334 4.43873 0.433436 4.36343C0.373516 4.28815 0.347244 4.19309 0.360357 4.09919C0.373471 4.0053 0.424917 3.92025 0.503353 3.86275C0.581812 3.80525 0.68085 3.78004 0.778676 3.79262C0.876503 3.80521 0.965116 3.85457 1.02504 3.92987C1.08493 4.00517 1.11123 4.10023 1.09809 4.19412ZM0.865541 0.733284C0.916382 0.658764 0.990963 0.602016 1.07816 0.571502C1.16534 0.540988 1.26048 0.538343 1.34936 0.563963C1.43972 0.585662 1.51955 0.636495 1.57552 0.707952C1.63148 0.77941 1.66015 0.86715 1.65676 0.956481C1.64497 1.09977 1.62264 1.24208 1.58994 1.38234C1.50173 1.85697 1.41619 2.33157 1.32264 2.80106C1.27987 2.98835 1.22374 3.16793 1.16225 3.35776C1.14086 3.41711 1.10513 3.47074 1.05801 3.51426C1.02871 3.54701 0.991299 3.57211 0.949201 3.58727C0.907102 3.60246 0.861708 3.60719 0.81721 3.60105C0.772713 3.59491 0.730525 3.5781 0.694591 3.55218C0.658656 3.52623 0.63012 3.49202 0.611627 3.45269C0.57984 3.38214 0.562579 3.30634 0.56083 3.2295C0.56083 2.91137 0.56083 2.5907 0.582216 2.27C0.618554 1.81234 0.690018 1.35787 0.796049 0.910301C0.808535 0.850338 0.83205 0.792996 0.865541 0.740981V0.733284Z" fill="#3A3B7B"/>
</svg>
