<svg width="16" height="8" viewBox="0 0 16 8" fill="none" xmlns="http://www.w3.org/2000/svg">
<path d="M7.71798 1.47447C7.73861 1.49275 7.75302 1.5168 7.75927 1.54337C7.76554 1.56994 7.76333 1.59774 7.75297 1.62304L6.03145 7.27675C6.00977 7.33847 5.96542 7.39008 5.90709 7.42153C5.85963 7.45266 5.80469 7.47103 5.74774 7.47487H0.276173C0.229445 7.47266 0.185176 7.45368 0.151817 7.42153C0.131973 7.40353 0.118045 7.38014 0.111814 7.35437C0.105584 7.32858 0.107339 7.30156 0.116844 7.27675L1.84226 1.62304C1.86214 1.56054 1.90509 1.50756 1.96272 1.47447C2.01097 1.44557 2.06564 1.42858 2.12205 1.42494H7.59362C7.63999 1.42537 7.68444 1.44308 7.71798 1.47447ZM4.86172 6.13763L5.89153 2.76216H3.00809L1.98215 6.13763H4.86172ZM12.9409 1.53161C12.9595 1.55288 12.9829 1.56974 13.0091 1.58096C13.0353 1.59217 13.0638 1.59744 13.0924 1.59637H13.8036C13.8307 1.59664 13.8573 1.59012 13.8812 1.57746C13.9049 1.56479 13.925 1.54639 13.9396 1.52399C13.9522 1.50649 13.9611 1.48668 13.9658 1.46574C13.9705 1.4448 13.9708 1.42315 13.9668 1.40208L13.8269 0.396298C13.8136 0.349749 13.7896 0.306765 13.7569 0.270575C13.7383 0.249306 13.7149 0.232439 13.6887 0.221226C13.6625 0.210013 13.634 0.204745 13.6054 0.205809H12.8942C12.8672 0.205551 12.8404 0.212062 12.8167 0.224727C12.7929 0.237392 12.7727 0.255794 12.7582 0.278197C12.731 0.331532 12.7194 0.36582 12.731 0.396298L12.8748 1.40208C12.8822 1.45105 12.9053 1.49643 12.9409 1.53161ZM15.1987 0.388679C15.1853 0.342127 15.1614 0.299143 15.1287 0.262955C15.1108 0.241764 15.0882 0.224902 15.0626 0.213669C15.037 0.202439 15.0091 0.19714 14.9811 0.198189H14.266C14.2394 0.197446 14.213 0.203781 14.1898 0.216524C14.1665 0.229267 14.1472 0.247946 14.1339 0.270575C14.108 0.304374 14.0968 0.346829 14.1028 0.388679L14.2466 1.39446C14.2556 1.44291 14.2785 1.48785 14.3126 1.52399C14.3316 1.54484 14.355 1.56143 14.3812 1.5726C14.4074 1.58378 14.4357 1.58929 14.4642 1.58875H15.1792C15.2058 1.5891 15.232 1.5826 15.2552 1.56989C15.2784 1.55718 15.2978 1.53873 15.3114 1.51637C15.3249 1.49933 15.3343 1.47953 15.339 1.45843C15.3438 1.43734 15.3436 1.41548 15.3386 1.39446L15.1987 0.388679ZM12.3152 1.91259L12.2452 1.41732H8.79832C8.7442 1.42024 8.69184 1.43735 8.64675 1.46684C8.61813 1.48215 8.59322 1.50335 8.57376 1.529C8.55432 1.55466 8.54078 1.58414 8.53407 1.61543L8.24649 2.56024C8.23502 2.58385 8.23109 2.61035 8.23525 2.63619C8.23943 2.66203 8.25147 2.68602 8.2698 2.70502C8.30258 2.73522 8.34535 2.75282 8.39028 2.75455H12.5795L11.5497 6.13002H7.37213C7.31826 6.13122 7.2658 6.14705 7.22058 6.17572C7.16562 6.20995 7.12548 6.26286 7.10788 6.3243L6.81643 7.26914C6.80691 7.29338 6.80441 7.31972 6.80921 7.34526C6.81403 7.37082 6.82591 7.39456 6.84361 7.41389C6.87536 7.44612 6.91847 7.4652 6.96409 7.46723H12.4512C12.508 7.46245 12.5627 7.44414 12.6105 7.41389C12.6679 7.38229 12.711 7.33059 12.731 7.26914L14.3087 2.10308H12.5328C12.5046 2.10362 12.4767 2.09849 12.4506 2.08801C12.4245 2.07752 12.4009 2.0619 12.3813 2.04212C12.3491 2.00757 12.3264 1.96564 12.3152 1.92021V1.91259Z" fill="white"/>
</svg>
