<svg width="4" height="5" viewBox="0 0 4 5" fill="none" xmlns="http://www.w3.org/2000/svg">
<path d="M2.68345 2.53167C2.61586 2.54563 2.54603 2.54646 2.47808 2.53412C2.41016 2.52177 2.34547 2.49653 2.28786 2.45985C2.23744 2.43217 2.19404 2.39412 2.16078 2.34842C2.12753 2.30271 2.10525 2.25052 2.09554 2.19555C2.08581 2.1406 2.08893 2.08427 2.1046 2.0306C2.12029 1.97693 2.1482 1.92727 2.18629 1.88517C2.25264 1.80059 2.34683 1.74003 2.45358 1.71329C2.73229 1.63566 3.0192 1.58833 3.30894 1.5722C3.3726 1.56509 3.4371 1.57026 3.49863 1.5874C3.56019 1.60457 3.61753 1.63333 3.66734 1.67206C3.71713 1.71076 3.75837 1.75864 3.78864 1.81286C3.81888 1.86708 3.83755 1.92656 3.84353 1.9878C3.92706 2.28861 3.93621 2.604 3.87026 2.90882C3.6297 3.89395 2.80107 4.23258 1.87086 3.91703C1.60975 3.83267 1.38081 3.67546 1.21331 3.46552C0.989904 3.21268 0.831507 2.91304 0.750874 2.59069C0.685552 2.30364 0.692703 2.00578 0.771767 1.72194C0.850808 1.4381 0.999454 1.17652 1.20528 0.959044C1.40062 0.722674 1.65416 0.536652 1.94304 0.417727C2.12558 0.321158 2.33919 0.293701 2.54179 0.340763C2.58775 0.352971 2.62947 0.376758 2.66262 0.409657C2.69577 0.442559 2.71915 0.483371 2.73034 0.527867C2.74153 0.572361 2.74009 0.618917 2.72622 0.662707C2.71232 0.706494 2.68649 0.74592 2.65139 0.776894C2.58463 0.834888 2.51211 0.886445 2.43487 0.930822C2.19723 1.07607 1.99043 1.26323 1.82542 1.4824C1.71726 1.62422 1.64277 1.78707 1.60722 1.95948C1.57164 2.13189 1.57588 2.30969 1.61961 2.48038C1.68023 2.7131 1.81475 2.922 2.00451 3.07812C2.59257 3.59123 3.35705 3.09608 3.2234 2.39571C3.02828 2.44189 2.8572 2.49064 2.68345 2.53167Z" fill="#3A3B7B"/>
</svg>
