<svg width="4" height="5" viewBox="0 0 4 5" fill="none" xmlns="http://www.w3.org/2000/svg">
<path d="M2.35987 2.40282C2.35368 2.41037 2.34716 2.41818 2.34034 2.4263C2.29071 2.1515 2.24471 1.87679 2.19865 1.60167C2.18212 1.50295 2.16551 1.40382 2.14881 1.30497L2.14693 1.29395L2.14083 1.28442C2.12933 1.26649 2.12819 1.24891 2.12819 1.21141V1.20708L2.1275 1.20278C2.11503 1.12535 2.07854 1.05328 2.02279 0.996027C1.96719 0.938924 1.89499 0.899183 1.81557 0.881932C1.73628 0.863161 1.65296 0.867298 1.57609 0.893836C1.49942 0.920308 1.4326 0.967883 1.38395 1.0306C1.34351 1.07872 1.31036 1.1321 1.28552 1.18914C1.22914 1.31202 1.17227 1.4352 1.11524 1.55871L1.11426 1.56085C0.971889 1.8692 0.828557 2.17962 0.689394 2.49249L0.688967 2.4935C0.603537 2.69636 0.533014 2.91012 0.462738 3.12321C0.448705 3.16575 0.434672 3.20826 0.420527 3.25066C0.395151 3.31791 0.384055 3.38934 0.387866 3.46074C0.383248 3.52467 0.399186 3.58844 0.433574 3.64343C0.468633 3.69954 0.521156 3.74368 0.583721 3.76967C0.65003 3.79757 0.724162 3.80349 0.794394 3.7865C0.864468 3.76954 0.926697 3.73072 0.971284 3.67615C1.02822 3.60893 1.0772 3.53561 1.11715 3.45793C1.23504 3.22648 1.34771 2.99222 1.45986 2.75897C1.50326 2.66875 1.54542 2.58795 1.59339 2.49995C1.59669 2.5108 1.60005 2.52138 1.60353 2.53199C1.65381 2.74444 1.73868 2.94794 1.855 3.13503C1.87701 3.17466 1.90768 3.2093 1.94489 3.23656C1.98255 3.26415 2.02602 3.28352 2.07226 3.29335C2.11851 3.30319 2.16643 3.30323 2.2127 3.29349C2.2589 3.28376 2.3025 3.26437 2.34019 3.23691L2.41477 3.18333L2.99363 2.71535L2.9594 2.92473C2.91242 3.21253 2.86579 3.49793 2.81625 3.7834C2.78383 3.90993 2.78388 4.04209 2.81638 4.16858C2.83046 4.23976 2.86633 4.30529 2.91941 4.35683C2.97294 4.40878 3.04149 4.44407 3.11619 4.45816C3.19088 4.47222 3.26826 4.46443 3.33827 4.43576C3.40727 4.40753 3.46596 4.3603 3.50698 4.30012C3.60243 4.18646 3.66183 4.04887 3.67815 3.9037C3.70272 3.69871 3.73047 3.49091 3.75825 3.28319C3.79024 3.04375 3.82222 2.80438 3.84924 2.56961L3.84933 2.56889C3.87533 2.31189 3.88791 2.05384 3.88703 1.79564C3.89273 1.71404 3.87156 1.63276 3.82646 1.56329C3.7812 1.49358 3.71418 1.43938 3.63495 1.40838C3.55255 1.37242 3.46031 1.3628 3.37178 1.38098C3.28384 1.39902 3.20424 1.44352 3.14452 1.50797C3.03775 1.60274 2.93759 1.70416 2.84467 1.81157L2.84405 1.8123C2.74261 1.93361 2.64187 2.0573 2.54178 2.18019C2.48092 2.2549 2.42024 2.32943 2.35987 2.40282Z" fill="#3A3B7B"/>
</svg>
