<svg width="3" height="4" viewBox="0 0 3 4" fill="none" xmlns="http://www.w3.org/2000/svg">
<path d="M2.20028 0.806572C2.13927 0.777966 2.07179 0.764389 2.00396 0.767052C1.9361 0.769736 1.87002 0.788572 1.81167 0.82191C1.75367 0.855005 1.70512 0.901347 1.67033 0.956821C1.63843 1.00354 1.61635 1.05578 1.60534 1.11064C1.59434 1.16545 1.59461 1.22178 1.60611 1.27646C1.61747 1.34675 1.63007 1.41509 1.64251 1.48249C1.66311 1.59404 1.68315 1.70307 1.69638 1.81424L1.69687 1.81706C1.72698 1.9914 1.74274 2.16773 1.74415 2.34442L1.74428 2.34693C1.75457 2.53776 1.68683 2.72487 1.55558 2.86856L1.55349 2.87111C1.51079 2.92364 1.45369 2.96373 1.38857 2.9869C1.32347 3.01007 1.25295 3.0154 1.18487 3.00228C1.11679 2.98917 1.05387 2.95814 1.00312 2.91266C0.952366 2.86717 0.915758 2.80886 0.897489 2.74458C0.858484 2.6091 0.835911 2.46974 0.830172 2.32931L0.896794 1.3113C0.897781 1.29801 0.898901 1.28436 0.900045 1.27059C0.902578 1.23967 0.905178 1.20818 0.906254 1.17881C0.907823 1.13559 0.906478 1.09114 0.895987 1.04907C0.885249 1.00607 0.864828 0.965161 0.828603 0.930328C0.792736 0.895846 0.744316 0.870408 0.683387 0.85309C0.573209 0.822482 0.480044 0.82345 0.402415 0.855071C0.324741 0.886692 0.271523 0.945401 0.233863 1.01322C0.196495 1.08047 0.172487 1.16008 0.154329 1.23983C0.140857 1.299 0.130029 1.36112 0.11974 1.42024C0.116176 1.44062 0.112701 1.46062 0.109182 1.48005L0.109092 1.48062C0.0540364 1.80489 0.0376499 2.13412 0.060246 2.46195C0.0644603 2.63911 0.10295 2.81399 0.173787 2.97764C0.253703 3.18879 0.398447 3.37174 0.588922 3.50234C0.779801 3.6332 1.00758 3.70531 1.2421 3.70912C1.47663 3.71293 1.70682 3.64826 1.90221 3.52369C2.09728 3.39929 2.24846 3.22101 2.33575 3.01243C2.45785 2.74672 2.51519 2.45775 2.50336 2.16755C2.49618 1.95569 2.48417 1.7422 2.47222 1.52978C2.46635 1.42559 2.4605 1.32162 2.45525 1.21828C2.45261 1.11466 2.41701 1.0143 2.35321 0.930658C2.31373 0.87778 2.26119 0.835135 2.20028 0.806572Z" fill="#3A3B7B"/>
</svg>
