<svg width="4" height="4" viewBox="0 0 4 4" fill="none" xmlns="http://www.w3.org/2000/svg">
<path d="M3.00424 2.11655C3.0868 2.05755 3.17656 2.00844 3.27154 1.97033C3.37091 1.94306 3.47683 1.94757 3.57329 1.98322C3.66973 2.01887 3.75148 2.08367 3.80614 2.16786C3.85503 2.25183 3.87415 2.34879 3.86065 2.44411C3.84716 2.53942 3.80176 2.62794 3.73129 2.69635C3.67666 2.75181 3.61463 2.80011 3.54686 2.84002C3.24482 3.02731 2.94009 3.20431 2.63537 3.3916C2.57302 3.43847 2.50687 3.48052 2.43757 3.51731C2.33215 3.56777 2.21167 3.58128 2.09697 3.55551C1.98226 3.52977 1.88055 3.46633 1.80941 3.37622C1.75623 3.3124 1.71135 3.24262 1.67576 3.1684C1.38708 2.58604 1.0877 2.00624 0.809712 1.4136C0.681408 1.15707 0.577161 0.86203 0.475588 0.577266C0.431642 0.494527 0.423061 0.398608 0.45167 0.309885C0.48028 0.221161 0.543824 0.146653 0.628784 0.102203C0.713746 0.0577534 0.81342 0.046883 0.906611 0.0718805C0.999802 0.096878 1.07916 0.155785 1.1278 0.236058C1.27731 0.426752 1.40965 0.629307 1.5234 0.841522C1.81208 1.35461 2.0874 1.8677 2.36539 2.3654C2.38158 2.39291 2.39943 2.41945 2.41885 2.44493C2.62809 2.36049 2.82489 2.2501 3.00424 2.11655Z" fill="#3A3B7B"/>
</svg>
