<svg width="4" height="5" viewBox="0 0 4 5" fill="none" xmlns="http://www.w3.org/2000/svg">
<path d="M2.2759 3.9786C1.40718 4.49171 0.418178 3.9786 0.201655 2.90112C0.043953 2.13147 0.343329 1.05397 1.39116 0.643492C1.61409 0.558036 1.8559 0.528032 2.09414 0.556265C2.38038 0.606557 2.64297 0.741805 2.84486 0.942944C3.04674 1.14408 3.17779 1.40096 3.21947 1.67738C3.39589 2.59325 2.99494 3.5707 2.2759 3.9786ZM2.57797 2.25204C2.5777 2.03892 2.49915 1.83269 2.35611 1.66968C2.27964 1.56885 2.16911 1.49661 2.04335 1.46526C1.91757 1.43392 1.78439 1.44541 1.66646 1.4978C1.19602 1.69276 0.864563 2.40084 0.984852 2.92165C0.994043 3.00337 1.0217 3.08219 1.06593 3.15259C1.11016 3.22298 1.16988 3.28325 1.24092 3.3292C1.31193 3.37512 1.39257 3.40562 1.47715 3.41854C1.56175 3.43143 1.64825 3.42646 1.73061 3.40395C1.97928 3.32057 2.19459 3.16476 2.34649 2.95824C2.49841 2.75172 2.57933 2.50483 2.57797 2.25204Z" fill="#3A3B7B"/>
</svg>
