<svg width="3" height="3" viewBox="0 0 3 3" fill="none" xmlns="http://www.w3.org/2000/svg">
<path fill-rule="evenodd" clip-rule="evenodd" d="M0.874892 0.255717C0.843332 0.323338 0.834677 0.398726 0.850099 0.471276C0.86036 0.566909 0.882895 0.66098 0.917193 0.751332C0.960013 0.861973 1.00793 0.971381 1.06701 1.10623C1.0806 1.13725 1.0948 1.16964 1.10965 1.20373C1.18933 1.38641 1.2893 1.61989 1.42264 1.95777C1.46039 2.05376 1.4939 2.15053 1.52765 2.24797C1.54129 2.28734 1.55497 2.32683 1.56898 2.36642C1.61918 2.50716 1.70557 2.6336 1.82007 2.73381C1.86869 2.78889 1.93318 2.82903 2.0055 2.8491C2.07923 2.86956 2.15764 2.86826 2.23059 2.84538C2.30353 2.82247 2.3676 2.77903 2.41447 2.7207C2.46043 2.66351 2.48775 2.59459 2.49307 2.52259C2.52288 2.38233 2.5127 2.2369 2.46357 2.10168C2.38558 1.87717 2.29674 1.65232 2.1943 1.4324L2.19382 1.43144C2.0253 1.08737 1.85399 0.745677 1.67457 0.403854L1.67323 0.401455C1.62071 0.312402 1.55245 0.232788 1.47153 0.166202C1.41899 0.106767 1.34652 0.0666737 1.2665 0.0528547C1.18476 0.0387496 1.10047 0.0529646 1.02866 0.0929914C0.960724 0.130224 0.906874 0.187194 0.874892 0.255717Z" fill="#3A3B7B"/>
</svg>
