<svg width="3" height="1" viewBox="0 0 3 1" fill="none" xmlns="http://www.w3.org/2000/svg">
<path d="M1.12397 0.37156C1.12397 0.382848 1.12397 0.39696 1.12104 0.405427C1.10633 0.515498 1.10633 0.625568 1.11514 0.738462C1.12104 0.766685 1.12691 0.794909 1.15045 0.817488C1.18867 0.859821 1.24747 0.851355 1.271 0.800553C1.28277 0.775153 1.28277 0.74975 1.27688 0.72435C1.24747 0.617101 1.24159 0.504209 1.23866 0.394137C1.23866 0.388492 1.23866 0.380025 1.23866 0.37156C1.271 0.368737 1.30041 0.365913 1.32687 0.365913C1.34747 0.363092 1.36511 0.360269 1.37981 0.351802C1.42391 0.329225 1.42391 0.281245 1.37686 0.258666C1.35921 0.250199 1.3357 0.247375 1.31512 0.247375C1.24159 0.250199 1.16809 0.250199 1.09456 0.250199C1.06811 0.250199 1.04164 0.253022 1.01516 0.255843C1.00046 0.258666 0.982815 0.258666 0.971069 0.267134C0.950468 0.275599 0.938721 0.289711 0.938721 0.309466C0.941657 0.329225 0.950468 0.340513 0.971069 0.348981C0.982815 0.357448 0.997519 0.360269 1.01222 0.360269C1.04751 0.363092 1.08575 0.368737 1.12397 0.37156ZM1.93263 0.501386C1.93263 0.504209 1.93557 0.50703 1.93557 0.50703C1.94734 0.583233 1.95911 0.656615 1.96792 0.729994C1.97088 0.755395 1.97381 0.777974 1.99146 0.79773C2.02968 0.845709 2.0885 0.840065 2.11495 0.789264C2.12672 0.763862 2.12966 0.738462 2.12378 0.710238C2.10614 0.625568 2.09731 0.540898 2.07967 0.459051C2.0679 0.408248 2.05321 0.360269 2.03851 0.315113C2.02968 0.28689 2.0091 0.267131 1.97381 0.26431C1.93853 0.258666 1.91206 0.275599 1.89735 0.301001C1.87971 0.323578 1.865 0.346157 1.85323 0.37156C1.83266 0.416716 1.81501 0.461874 1.7915 0.504209C1.78854 0.515498 1.7856 0.523965 1.77973 0.53243C1.77679 0.526786 1.77386 0.523965 1.77386 0.523965C1.73561 0.453407 1.70033 0.382848 1.66211 0.315113C1.65621 0.309467 1.65328 0.303822 1.65034 0.298178C1.6327 0.272778 1.61212 0.258666 1.57977 0.258666C1.55036 0.261487 1.52682 0.278422 1.51214 0.303822C1.50625 0.315113 1.50625 0.323578 1.50331 0.334869C1.49154 0.425183 1.47683 0.515498 1.46509 0.605812C1.45919 0.656615 1.45626 0.707415 1.45626 0.758218C1.45332 0.769506 1.45626 0.783618 1.46213 0.794909C1.46803 0.817486 1.48567 0.8316 1.50918 0.834421C1.53859 0.837244 1.55917 0.828776 1.568 0.806197C1.57681 0.789264 1.57977 0.775153 1.58271 0.761041C1.59448 0.710238 1.60329 0.662259 1.61212 0.61428C1.61799 0.586056 1.62093 0.563477 1.62976 0.53243C1.63563 0.543721 1.64151 0.552189 1.6474 0.560654C1.67386 0.594524 1.70033 0.628391 1.73268 0.656615C1.76503 0.679192 1.7915 0.676371 1.81795 0.650968C1.82385 0.645324 1.82678 0.642503 1.83266 0.636857C1.85913 0.597345 1.89148 0.557833 1.91793 0.518319C1.92383 0.512675 1.92676 0.50703 1.93263 0.501386Z" fill="#3A3B7B"/>
</svg>
