<svg width="4" height="5" viewBox="0 0 4 5" fill="none" xmlns="http://www.w3.org/2000/svg">
<path d="M2.98902 3.93756C2.3288 4.67897 1.22217 4.49168 0.666192 3.53733C0.270581 2.86005 0.201089 1.7415 1.0618 1.03599C1.2456 0.888291 1.46537 0.787674 1.70064 0.743527C1.98909 0.703837 2.28325 0.752679 2.54104 0.883076C2.79883 1.01347 3.00708 1.21874 3.13605 1.46956C3.60649 2.29052 3.53966 3.33722 2.98902 3.93756ZM2.72172 2.20842C2.65158 2.00668 2.51087 1.83445 2.32344 1.72097C2.21739 1.64842 2.08851 1.61314 1.95854 1.62109C1.82854 1.62903 1.70539 1.67971 1.60976 1.76458C1.22753 2.09041 1.14732 2.86262 1.42531 3.32184C1.46075 3.39672 1.51278 3.46327 1.57781 3.51683C1.64284 3.57039 1.71929 3.60966 1.80178 3.63189C1.88427 3.65414 1.97082 3.6588 2.0554 3.64558C2.13998 3.63233 2.2205 3.60152 2.29138 3.55529C2.49858 3.4011 2.65059 3.1888 2.72627 2.94789C2.80197 2.70696 2.79758 2.44939 2.71372 2.21099L2.72172 2.20842Z" fill="#3A3B7B"/>
</svg>
