<svg width="7" height="7" viewBox="0 0 7 7" fill="none" xmlns="http://www.w3.org/2000/svg">
<path fill-rule="evenodd" clip-rule="evenodd" d="M6.30443 3.72325C6.30443 3.91592 6.28482 4.10832 6.24629 4.29587C6.20872 4.47897 6.15308 4.65873 6.08018 4.83056C6.00896 4.99936 5.92062 5.16202 5.81739 5.31372C5.7157 5.46445 5.59856 5.60587 5.46987 5.73478C5.34091 5.86314 5.19901 5.97996 5.04835 6.08208C4.89615 6.18459 4.73326 6.2728 4.56436 6.34435C4.39227 6.41687 4.2121 6.47243 4.02917 6.50993C3.84137 6.54856 3.64826 6.56828 3.45531 6.56828C3.26222 6.56828 3.06912 6.54856 2.88159 6.50993C2.69838 6.47243 2.51822 6.41687 2.34626 6.34435C2.17738 6.2728 2.01432 6.18459 1.86213 6.08208C1.71147 5.97997 1.56957 5.86314 1.44088 5.73478C1.31206 5.60587 1.19492 5.46445 1.09309 5.31372C0.990416 5.16202 0.901931 4.99935 0.830429 4.83056C0.757522 4.65873 0.701744 4.47896 0.664042 4.29587C0.625927 4.10832 0.606445 3.91592 0.606445 3.72325C0.606445 3.53043 0.625915 3.33762 0.664053 3.15048C0.701755 2.96738 0.757534 2.78735 0.830441 2.61579C0.901942 2.44687 0.990428 2.28406 1.0931 2.13236C1.19493 1.9815 1.31207 1.84035 1.44089 1.71129C1.56958 1.58293 1.71148 1.46639 1.86214 1.36442C2.01434 1.26148 2.17739 1.17327 2.34627 1.10159C2.51823 1.02892 2.69838 0.973221 2.8816 0.935996C3.06913 0.897657 3.26223 0.878204 3.45532 0.878204C3.64827 0.878204 3.84137 0.897657 4.02918 0.935996C4.21211 0.973232 4.39227 1.02893 4.56437 1.10159C4.73326 1.17326 4.89616 1.26148 5.04836 1.36442C5.19902 1.46639 5.34093 1.58293 5.46989 1.71129C5.59857 1.84035 5.71572 1.9815 5.8174 2.13236C5.92062 2.28406 6.00896 2.44688 6.08018 2.61579C6.15308 2.78735 6.20872 2.96738 6.24629 3.15048C6.28482 3.33762 6.30443 3.53043 6.30443 3.72325ZM2.4172 1.5257C1.73871 1.84563 1.23232 2.46993 1.07442 3.22231C1.13856 3.22286 2.15246 3.23565 3.32063 2.92571C2.89952 2.17861 2.44962 1.56891 2.4172 1.5257ZM3.52221 3.29983C2.26945 3.67434 1.06733 3.64739 1.02421 3.64573C1.0235 3.67185 1.02225 3.69712 1.02225 3.72325C1.02225 4.34739 1.25806 4.9164 1.64564 5.34664C1.64481 5.34538 2.31064 4.16584 3.62363 3.74186C3.65534 3.73131 3.68763 3.72185 3.71962 3.71269C3.65856 3.57461 3.5919 3.43625 3.52221 3.29983ZM5.06212 1.89981C4.63377 1.52264 4.07132 1.29386 3.4553 1.29386C3.25761 1.29386 3.06577 1.31775 2.882 1.36192C2.91844 1.41083 3.37545 2.01623 3.79155 2.77915C4.7096 2.43548 5.05613 1.90869 5.06212 1.89981ZM3.88547 4.11527C3.88005 4.11707 3.87463 4.11861 3.86933 4.12055C2.43379 4.62028 1.965 5.62737 1.95993 5.63837C2.37298 5.95912 2.89105 6.15264 3.45532 6.15264C3.79225 6.15264 4.1132 6.08414 4.40521 5.9601C4.36918 5.74783 4.22783 5.00379 3.88547 4.11527ZM4.81491 5.73811C5.36122 5.36998 5.74921 4.78542 5.85745 4.10831C5.80737 4.0922 5.12666 3.87701 4.34134 4.00274C4.66047 4.87849 4.79014 5.59169 4.81491 5.73811ZM3.97882 3.14118C4.03529 3.25704 4.08998 3.37496 4.14047 3.49347C4.15842 3.53599 4.17595 3.57766 4.19306 3.61933C5.02888 3.51431 5.85232 3.69101 5.88752 3.69823C5.88196 3.12228 5.67564 2.5937 5.33426 2.17987C5.32966 2.18638 4.93943 2.74942 3.97882 3.14118Z" fill="white"/>
</svg>
