<svg width="7" height="7" viewBox="0 0 7 7" fill="none" xmlns="http://www.w3.org/2000/svg">
<path fill-rule="evenodd" clip-rule="evenodd" d="M3.43007 0.878204C2.65632 0.878204 2.55922 0.881588 2.25532 0.895417C1.95202 0.909306 1.74499 0.957324 1.56384 1.02778C1.37646 1.10055 1.21751 1.19789 1.05915 1.35631C0.900673 1.51466 0.803331 1.67362 0.730325 1.86094C0.659693 2.04215 0.611616 2.24924 0.597964 2.55242C0.584372 2.85632 0.580811 2.95348 0.580811 3.72723C0.580811 4.50098 0.584253 4.59778 0.598023 4.90168C0.611972 5.20498 0.65999 5.41201 0.730384 5.59316C0.803213 5.78054 0.900554 5.9395 1.05897 6.09785C1.21727 6.25633 1.37622 6.35391 1.56349 6.42668C1.74476 6.49713 1.95184 6.54515 2.25509 6.55904C2.55898 6.57287 2.65603 6.57625 3.42972 6.57625C4.20352 6.57625 4.30033 6.57287 4.60423 6.55904C4.90753 6.54515 5.1148 6.49713 5.29606 6.42668C5.48339 6.35391 5.6421 6.25633 5.8004 6.09785C5.95888 5.9395 6.05622 5.78054 6.12923 5.59322C6.19926 5.41201 6.24734 5.20492 6.26159 4.90174C6.27524 4.59784 6.2788 4.50098 6.2788 3.72723C6.2788 2.95348 6.27524 2.85638 6.26159 2.55248C6.24734 2.24918 6.19926 2.04215 6.12923 1.861C6.05622 1.67362 5.95888 1.51466 5.8004 1.35631C5.64192 1.19783 5.48345 1.10049 5.29589 1.02778C5.11426 0.957324 4.90711 0.909306 4.60381 0.895417C4.29991 0.881588 4.20317 0.878204 3.42918 0.878204H3.43007ZM3.17448 1.39161C3.25033 1.3915 3.33497 1.39161 3.43006 1.39161C4.19075 1.39161 4.28091 1.39434 4.5813 1.408C4.85908 1.4207 5.00984 1.46711 5.11027 1.50611C5.24323 1.55775 5.33802 1.61948 5.43767 1.71919C5.53739 1.81891 5.59912 1.91388 5.65087 2.04683C5.68987 2.14714 5.73634 2.2979 5.74899 2.57568C5.76264 2.87602 5.76561 2.96623 5.76561 3.72657C5.76561 4.4869 5.76264 4.57712 5.74899 4.87745C5.73629 5.15523 5.68987 5.306 5.65087 5.4063C5.59924 5.53926 5.53739 5.63393 5.43767 5.73359C5.33796 5.8333 5.24329 5.89503 5.11027 5.94667C5.00996 5.98584 4.85908 6.03214 4.5813 6.04484C4.28097 6.05849 4.19075 6.06146 3.43006 6.06146C2.66931 6.06146 2.57915 6.05849 2.27882 6.04484C2.00104 6.03202 1.85028 5.98561 1.74979 5.94661C1.61683 5.89497 1.52187 5.83324 1.42215 5.73353C1.32243 5.63381 1.26071 5.53908 1.20895 5.40607C1.16995 5.30576 1.12348 5.155 1.11084 4.87722C1.09718 4.57688 1.09445 4.48666 1.09445 3.72586C1.09445 2.96505 1.09718 2.8753 1.11084 2.57497C1.12354 2.29719 1.16995 2.14643 1.20895 2.046C1.26059 1.91305 1.32243 1.81808 1.42215 1.71836C1.52187 1.61865 1.61683 1.55692 1.74979 1.50516C1.85022 1.46599 2.00104 1.41969 2.27882 1.40693C2.54164 1.39506 2.64349 1.3915 3.17448 1.3909V1.39161ZM4.95085 1.86467C4.7621 1.86467 4.60896 2.01763 4.60896 2.20644C4.60896 2.39518 4.7621 2.54832 4.95085 2.54832C5.13959 2.54832 5.29273 2.39518 5.29273 2.20644C5.29273 2.01769 5.13959 1.86467 4.95085 1.86467ZM3.43008 2.26413C2.62208 2.26413 1.96698 2.91923 1.96698 3.72722C1.96698 4.53522 2.62208 5.19002 3.43008 5.19002C4.23807 5.19002 4.89293 4.53522 4.89293 3.72722C4.89293 2.91923 4.23807 2.26413 3.43008 2.26413ZM3.43007 2.77755C3.95452 2.77755 4.37974 3.2027 4.37974 3.72722C4.37974 4.25168 3.95452 4.6769 3.43007 4.6769C2.90555 4.6769 2.48039 4.25168 2.48039 3.72722C2.48039 3.2027 2.90555 2.77755 3.43007 2.77755Z" fill="white"/>
</svg>
