<svg width="7" height="5" viewBox="0 0 7 5" fill="none" xmlns="http://www.w3.org/2000/svg">
<path fill-rule="evenodd" clip-rule="evenodd" d="M5.73272 0.890793C5.9779 0.95807 6.17098 1.1563 6.23651 1.40804C6.35558 1.86428 6.35558 2.81624 6.35558 2.81624C6.35558 2.81624 6.35558 3.76816 6.23651 4.22444C6.17098 4.47618 5.9779 4.67441 5.73272 4.74172C5.28841 4.86395 3.50659 4.86395 3.50659 4.86395C3.50659 4.86395 1.72477 4.86395 1.28042 4.74172C1.03525 4.67441 0.842162 4.47618 0.776635 4.22444C0.657593 3.76816 0.657593 2.81624 0.657593 2.81624C0.657593 2.81624 0.657593 1.86428 0.776635 1.40804C0.842162 1.1563 1.03525 0.95807 1.28042 0.890793C1.72477 0.768524 3.50659 0.768524 3.50659 0.768524C3.50659 0.768524 5.28841 0.768524 5.73272 0.890793ZM2.97241 2.01494V3.79556L4.3969 2.90529L2.97241 2.01494Z" fill="white"/>
</svg>
